HIERARCHY
ROOT Hips
{
	OFFSET -0.001795 -0.223333 0.028219
	CHANNELS 6 Xposition Yposition Zposition Zrotation Yrotation Xrotation 
	JOINT LeftUpLeg
	{
		OFFSET 0.069520 -0.091406 -0.006815
		CHANNELS 3 Zrotation Yrotation Xrotation
		JOINT LeftLeg
		{
			OFFSET 0.034277 -0.375199 -0.004496
			CHANNELS 3 Zrotation Yrotation Xrotation
			JOINT LeftFoot
			{
				OFFSET -0.013596 -0.397961 -0.043693
				CHANNELS 3 Zrotation Yrotation Xrotation
				JOINT LeftToe
				{
					OFFSET 0.026358 -0.055791 0.119288
					CHANNELS 3 Zrotation Yrotation Xrotation
					End Site
					{
						OFFSET 0.000000 0.000000 0.000000
					}
				}
			}
		}
	}
	JOINT RightUpLeg
	{
		OFFSET -0.067670 -0.090522 -0.004320
		CHANNELS 3 Zrotation Yrotation Xrotation
		JOINT RightLeg
		{
			OFFSET -0.038290 -0.382569 -0.008850
			CHANNELS 3 Zrotation Yrotation Xrotation
			JOINT RightFoot
			{
				OFFSET 0.015774 -0.398415 -0.042312
				CHANNELS 3 Zrotation Yrotation Xrotation
				JOINT RightToe
				{
					OFFSET -0.025372 -0.048144 0.123348
					CHANNELS 3 Zrotation Yrotation Xrotation
					End Site
					{
						OFFSET 0.000000 0.000000 0.000000
					}
				}
			}
		}
	}
	JOINT Spine
	{
		OFFSET -0.002533 0.108963 -0.026696
		CHANNELS 3 Zrotation Yrotation Xrotation
		JOINT Spine1
		{
			OFFSET 0.005487 0.135180 0.001092
			CHANNELS 3 Zrotation Yrotation Xrotation
			JOINT Spine2
			{
				OFFSET 0.001457 0.052922 0.025425
				CHANNELS 3 Zrotation Yrotation Xrotation
				JOINT Neck
				{
					OFFSET -0.002778 0.213870 -0.042857
					CHANNELS 3 Zrotation Yrotation Xrotation
					JOINT Head
					{
						OFFSET 0.005152 0.064970 0.051349
						CHANNELS 3 Zrotation Yrotation Xrotation
						End Site
						{
							OFFSET 0.000000 0.000000 0.000000
						}
					}
				}
				JOINT LeftShoulder
				{
					OFFSET 0.078845 0.121749 -0.034090
					CHANNELS 3 Zrotation Yrotation Xrotation
					JOINT LeftArm
					{
						OFFSET 0.090977 0.030469 -0.008868
						CHANNELS 3 Zrotation Yrotation Xrotation
						JOINT LeftForeArm
						{
							OFFSET 0.259612 -0.012772 -0.027456
							CHANNELS 3 Zrotation Yrotation Xrotation
							JOINT LeftHand
							{
								OFFSET 0.249234 0.008986 -0.001171
								CHANNELS 3 Zrotation Yrotation Xrotation
								End Site
								{
									OFFSET 0.000000 0.000000 0.000000
								}
							}
						}
					}
				}
				JOINT RightShoulder
				{
					OFFSET -0.081759 0.118833 -0.038615
					CHANNELS 3 Zrotation Yrotation Xrotation
					JOINT RightArm
					{
						OFFSET -0.096012 0.032551 -0.009143
						CHANNELS 3 Zrotation Yrotation Xrotation
						JOINT RightForeArm
						{
							OFFSET -0.253742 -0.013329 -0.021401
							CHANNELS 3 Zrotation Yrotation Xrotation
							JOINT RightHand
							{
								OFFSET -0.255298 0.007772 -0.005559
								CHANNELS 3 Zrotation Yrotation Xrotation
								End Site
								{
									OFFSET 0.000000 0.000000 0.000000
								}
							}
						}
					}
				}
			}
		}
	}
}
MOTION
Frames: 16
Frame Time: 0.050000
0.006425 0.959359 -0.051059 0.398466 -2.893308 0.888246 4.695149 -0.031475 0.075887 -4.222616 0.475596 -7.386683 2.904694 10.282439 18.649188 0.000000 0.000000 0.000000 -7.523149 0.273474 -0.887344 1.393309 -0.134399 0.159623 -3.495030 -13.472485 20.916001 0.000000 0.000000 0.000000 -3.140149 -0.093836 13.378891 7.583296 -1.560650 -21.024560 0.839922 -0.494729 26.499831 -3.680508 3.347701 -24.345265 0.000000 0.000000 0.000000 -19.687778 -12.449797 6.454998 -47.305840 -29.969770 3.780307 -79.197625 -54.242598 52.487280 0.000000 0.000000 0.000000 7.629649 19.916980 7.676865 43.867577 12.104121 -1.971183 40.987917 63.048550 28.262082 0.000000 0.000000 0.000000 
0.006834 0.959287 -0.051935 0.274473 -3.012855 1.013382 4.910484 -0.049021 -0.238220 -4.403351 0.486569 -7.140433 2.997806 10.388909 18.596495 0.000000 0.000000 0.000000 -7.300390 0.278122 -1.075089 1.076014 -0.098323 0.281378 -3.189709 -12.972934 20.577484 0.000000 0.000000 0.000000 -3.327106 -0.067941 13.758310 7.794007 -1.614519 -21.024104 1.169648 0.079878 26.191356 -3.575300 3.367994 -24.464765 0.000000 0.000000 0.000000 -19.950800 -11.877852 6.013492 -46.979329 -28.968768 3.344916 -78.136361 -53.795379 50.963556 0.000000 0.000000 0.000000 8.168036 20.273383 7.956847 44.452372 13.588992 -1.432629 34.884541 63.047416 24.421338 0.000000 0.000000 0.000000 
0.007398 0.959222 -0.052826 0.175490 -3.212730 1.115235 5.053969 -0.059356 -0.458263 -4.527639 0.496217 -6.998676 3.121978 10.536512 18.585302 0.000000 0.000000 0.000000 -7.193490 0.288690 -1.305497 0.881905 -0.073454 0.424167 -2.867981 -12.476771 20.373091 0.000000 0.000000 0.000000 -3.504502 -0.040694 14.224409 7.996440 -1.670717 -21.016432 1.434102 0.829521 25.977925 -3.231167 3.264517 -24.254542 0.000000 0.000000 0.000000 -20.352753 -11.423583 5.604624 -47.020466 -28.165694 3.060121 -77.437494 -52.957779 49.375751 0.000000 0.000000 0.000000 9.187028 20.181148 8.147534 44.872989 14.933224 -0.941895 29.341733 62.859999 20.980946 0.000000 0.000000 0.000000 
0.008011 0.959035 -0.053632 -0.045013 -3.232370 1.316508 5.290444 -0.076800 -0.771452 -4.580436 0.499148 -6.907379 3.175257 10.593969 18.495638 0.000000 0.000000 0.000000 -7.010536 0.300198 -1.640357 0.713788 -0.050417 0.589099 -2.514222 -11.933160 20.374606 0.000000 0.000000 0.000000 -3.534686 -0.035703 14.346389 8.358165 -1.780143 -20.864897 1.591464 1.215996 25.724198 -3.323804 3.380902 -24.142290 0.000000 0.000000 0.000000 -20.692663 -11.309800 5.440033 -46.981106 -27.504832 2.824915 -77.502533 -52.584926 48.886954 0.000000 0.000000 0.000000 9.975732 20.441563 8.433105 45.303866 15.551514 -0.690588 25.534817 63.213696 18.826069 0.000000 0.000000 0.000000 
0.008656 0.959115 -0.054257 -0.084799 -3.037890 1.552839 5.241476 -0.108515 -1.334090 -4.476682 0.491027 -6.501796 3.129762 10.535167 18.398318 0.000000 0.000000 0.000000 -6.919895 0.308150 -1.879380 0.404490 -0.016903 0.627889 -2.287841 -11.554695 20.400217 0.000000 0.000000 0.000000 -3.699183 -0.013953 14.666402 8.737654 -1.876958 -20.839023 1.705532 1.454845 25.488966 -3.663320 3.637054 -23.865078 0.000000 0.000000 0.000000 -20.916897 -10.954233 5.133540 -47.451858 -27.415359 2.895761 -77.574182 -52.167348 48.424374 0.000000 0.000000 0.000000 10.110417 20.021566 8.327136 46.553237 15.688671 -0.592941 25.416583 64.094484 19.249999 0.000000 0.000000 0.000000 
0.009274 0.959171 -0.054746 -0.223194 -2.980842 1.658843 5.184558 -0.130661 -1.760484 -4.172350 0.471697 -6.021395 3.165410 10.566459 18.244335 0.000000 0.000000 0.000000 -6.843269 0.309184 -1.924216 0.346183 -0.012416 0.585723 -2.042142 -11.144318 20.309550 0.000000 0.000000 0.000000 -3.602575 -0.029213 14.808811 9.057889 -1.950506 -20.922846 1.655742 1.682761 25.615309 -4.167104 3.987662 -23.960035 0.000000 0.000000 0.000000 -21.095342 -10.985136 5.080913 -48.081554 -27.644842 3.078686 -76.876920 -51.631590 47.353984 0.000000 0.000000 0.000000 10.821943 19.395634 8.200312 47.613932 15.157010 -0.796016 27.915904 64.469034 21.168008 0.000000 0.000000 0.000000 
0.009918 0.959282 -0.055278 -0.273871 -2.776587 1.783077 5.115493 -0.157446 -2.240026 -4.013204 0.458635 -5.535822 3.111721 10.495118 18.120633 0.000000 0.000000 0.000000 -6.810942 0.318805 -2.216519 0.453095 -0.012456 0.893757 -2.313389 -11.537148 20.338713 0.000000 0.000000 0.000000 -3.678886 -0.021708 15.098490 9.475861 -2.019612 -21.241678 1.625615 1.723085 25.662008 -4.505665 4.218120 -23.641874 0.000000 0.000000 0.000000 -21.089787 -11.145193 5.118054 -48.554241 -28.338428 3.451342 -76.011931 -51.628536 46.671095 0.000000 0.000000 0.000000 11.247004 18.573649 7.921609 49.063287 13.457845 -1.456155 33.289791 65.105314 25.160146 0.000000 0.000000 0.000000 
0.010615 0.959425 -0.055985 -0.416236 -2.707756 1.815061 5.066318 -0.177754 -2.635478 -3.722646 0.436380 -4.994827 3.132724 10.510309 17.979773 0.000000 0.000000 0.000000 -6.753044 0.322206 -2.338295 0.522094 -0.018973 0.921733 -2.285758 -11.541511 20.654064 0.000000 0.000000 0.000000 -3.733762 -0.016225 15.371191 9.995419 -2.161968 -21.199482 1.388379 1.565103 25.519500 -5.135098 4.582294 -23.530684 0.000000 0.000000 0.000000 -21.101038 -11.257407 5.205502 -49.069057 -29.129181 3.884459 -74.252247 -51.127501 44.993425 0.000000 0.000000 0.000000 11.902286 17.793112 7.633208 50.159638 11.823405 -2.111043 37.424653 65.148268 28.021793 0.000000 0.000000 0.000000 
0.011303 0.959603 -0.056901 -0.371452 -2.885864 2.067594 5.095040 -0.205940 -3.223501 -3.928556 0.452069 -4.521793 3.254037 10.664195 18.024143 0.000000 0.000000 0.000000 -6.769643 0.349924 -2.851344 0.660904 -0.018819 1.340064 -2.622025 -12.005932 20.193853 0.000000 0.000000 0.000000 -3.735390 -0.008384 15.352796 10.116696 -2.173220 -21.328948 1.262042 1.150362 25.603373 -5.664187 4.822106 -23.518301 0.000000 0.000000 0.000000 -20.993504 -11.711799 5.616221 -49.450659 -30.508679 4.528733 -72.151020 -50.988561 43.591515 0.000000 0.000000 0.000000 12.409678 17.126561 7.301023 50.919606 10.231399 -2.798285 40.304402 64.934207 29.796576 0.000000 0.000000 0.000000 
0.012004 0.959769 -0.058124 -0.353122 -3.259045 2.236777 5.216598 -0.216074 -3.543661 -4.251763 0.480716 -4.340094 3.445599 10.907722 18.164455 0.000000 0.000000 0.000000 -6.749076 0.374660 -3.258044 0.689218 -0.017662 1.439017 -2.796520 -12.334249 20.173270 0.000000 0.000000 0.000000 -3.820272 0.015515 15.501577 10.250393 -2.189318 -21.487150 0.952742 0.519285 25.529467 -6.493349 5.225215 -22.491580 0.000000 0.000000 0.000000 -20.793437 -12.159590 6.103129 -49.120218 -31.715928 4.987187 -71.190088 -50.922250 43.113747 0.000000 0.000000 0.000000 13.011978 16.888962 7.098974 51.015448 9.197039 -3.221989 39.652617 64.685338 28.964723 0.000000 0.000000 0.000000 
0.012563 0.959871 -0.059672 -0.376589 -3.935571 2.373212 5.431735 -0.217103 -3.830271 -4.644589 0.520602 -4.108835 3.793815 11.338829 18.344101 0.000000 0.000000 0.000000 -6.596020 0.403873 -3.705851 0.712883 -0.011363 1.647848 -3.035948 -12.744239 19.761296 0.000000 0.000000 0.000000 -3.875557 0.040952 15.551017 10.038110 -2.147154 -21.444868 0.843999 -0.062027 25.575576 -6.991326 5.403940 -22.144226 0.000000 0.000000 0.000000 -20.711228 -12.632047 6.654430 -48.447257 -33.006167 5.390723 -70.690482 -50.963304 43.077431 0.000000 0.000000 0.000000 13.331362 16.752670 6.878022 50.890032 8.855851 -3.358966 37.138556 63.845041 26.531651 0.000000 0.000000 0.000000 
0.012945 0.960149 -0.061394 -0.465763 -4.720366 2.592858 5.688922 -0.219106 -4.228670 -4.960475 0.557852 -3.821170 4.202565 11.842816 18.584605 0.000000 0.000000 0.000000 -6.512158 0.428439 -3.963105 0.826205 -0.023798 1.597645 -2.808627 -12.348457 18.868838 0.000000 0.000000 0.000000 -3.978933 0.079369 15.788097 10.007638 -2.111855 -21.705219 0.674395 -0.523170 25.531189 -7.728553 5.747614 -21.818714 0.000000 0.000000 0.000000 -20.692762 -12.970005 7.109842 -47.373973 -34.447313 5.778332 -70.160974 -51.238456 43.139944 0.000000 0.000000 0.000000 13.193146 16.733501 6.678760 50.819616 8.608814 -3.444679 34.828615 63.580325 24.605320 0.000000 0.000000 0.000000 
0.012915 0.960095 -0.063071 -0.597324 -5.345461 2.634337 5.809313 -0.207397 -4.233248 -4.913302 0.560094 -3.896012 4.526748 12.236008 18.739833 0.000000 0.000000 0.000000 -6.301569 0.442444 -4.120613 0.943323 -0.035025 1.594454 -2.863460 -12.424393 18.310677 0.000000 0.000000 0.000000 -4.060293 0.109301 15.948500 9.809418 -2.071432 -21.657709 0.457318 -0.877304 25.294736 -7.845714 5.701001 -22.064001 0.000000 0.000000 0.000000 -20.233650 -13.215264 7.390147 -46.414489 -35.296869 5.949705 -70.652964 -51.724100 44.040856 0.000000 0.000000 0.000000 13.216631 16.835239 6.579266 50.022884 8.216661 -3.520536 34.500305 63.084801 23.877520 0.000000 0.000000 0.000000 
0.012561 0.960172 -0.064444 -0.841140 -6.249971 2.832802 5.949255 -0.190427 -4.177707 -4.658472 0.544979 -4.233072 4.993476 12.803438 19.027803 0.000000 0.000000 0.000000 -6.019190 0.472593 -4.513828 1.140274 -0.054182 1.569721 -2.789034 -12.377159 17.982656 0.000000 0.000000 0.000000 -4.158905 0.152102 16.202707 9.558297 -1.996445 -21.814993 0.365102 -0.780816 25.317647 -7.648003 5.544308 -21.538264 0.000000 0.000000 0.000000 -19.647292 -13.569895 7.636659 -45.236847 -36.387197 6.145770 -70.286740 -52.509084 44.506017 0.000000 0.000000 0.000000 12.846127 16.957325 6.529992 49.335188 7.984005 -3.566789 35.284245 62.367486 23.868678 0.000000 0.000000 0.000000 
0.011930 0.959926 -0.065552 -1.014473 -6.869044 2.892513 6.153422 -0.172871 -4.128939 -4.614984 0.547013 -4.338395 5.324715 13.197602 19.139822 0.000000 0.000000 0.000000 -5.794141 0.486903 -4.681225 1.271572 -0.074096 1.315684 -2.799676 -12.515896 18.115691 0.000000 0.000000 0.000000 -4.297566 0.193752 16.390234 9.432468 -1.963767 -21.894161 0.111750 -0.758941 25.279993 -7.330050 5.319833 -21.002524 0.000000 0.000000 0.000000 -19.060737 -13.816528 7.781684 -43.979969 -37.054233 6.135624 -69.886573 -53.512240 45.088879 0.000000 0.000000 0.000000 12.078832 17.169115 6.518069 48.230981 7.917594 -3.517713 37.677157 60.921848 24.500620 0.000000 0.000000 0.000000 
0.011259 0.959673 -0.066381 -1.185489 -7.642491 2.981103 6.475027 -0.141222 -3.892052 -4.787987 0.569171 -4.743236 5.708427 13.652460 19.352122 0.000000 0.000000 0.000000 -5.360982 0.505762 -4.934834 1.156247 -0.054149 1.489541 -2.835682 -12.547261 17.427309 0.000000 0.000000 0.000000 -4.452982 0.252148 16.940002 9.314320 -1.886643 -22.360131 0.117001 -0.719485 25.468260 -7.004939 5.065596 -20.813466 0.000000 0.000000 0.000000 -18.900031 -13.792392 7.869433 -42.929511 -37.882826 6.178675 -69.170895 -53.753596 44.849553 0.000000 0.000000 0.000000 11.413856 17.460288 6.541003 46.713941 8.026120 -3.398734 41.317801 59.429202 25.794614 0.000000 0.000000 0.000000 
